<?xml version="1.0" encoding="UTF-8" standalone="no"?>
<svg
   xmlns:dc="http://purl.org/dc/elements/1.1/"
   xmlns:cc="http://creativecommons.org/ns#"
   xmlns:rdf="http://www.w3.org/1999/02/22-rdf-syntax-ns#"
   xmlns:svg="http://www.w3.org/2000/svg"
   xmlns="http://www.w3.org/2000/svg"
   xmlns:xlink="http://www.w3.org/1999/xlink"
   xmlns:sodipodi="http://sodipodi.sourceforge.net/DTD/sodipodi-0.dtd"
   xmlns:inkscape="http://www.inkscape.org/namespaces/inkscape"
   version="1.1"
   id="svg2"
   viewBox="0 0 400 400"
   height="400"
   width="400"
   inkscape:version="0.91 r13725"
   sodipodi:docname="moek_punk_03plain.svg">
  <sodipodi:namedview
     pagecolor="#ffffff"
     bordercolor="#666666"
     borderopacity="1"
     objecttolerance="10"
     gridtolerance="10"
     guidetolerance="10"
     inkscape:pageopacity="0"
     inkscape:pageshadow="2"
     inkscape:window-width="1436"
     inkscape:window-height="855"
     id="namedview14"
     showgrid="false"
     inkscape:zoom="1.76"
     inkscape:cx="168"
     inkscape:cy="310"
     inkscape:window-x="4"
     inkscape:window-y="1"
     inkscape:window-maximized="1"
     inkscape:current-layer="svg2"
     units="px" />
  <defs
     id="defs4">
    <linearGradient
       id="linearGradient4152">
      <stop
         style="stop-color:#ff6600;stop-opacity:1;"
         offset="0"
         id="stop4154" />
      <stop
         style="stop-color:#d82700;stop-opacity:1"
         offset="1"
         id="stop4156" />
    </linearGradient>
    <linearGradient
       id="linearGradient4316">
      <stop
         id="stop4318"
         offset="0"
         style="stop-color:#ff6600;stop-opacity:1;" />
      <stop
         id="stop4320"
         offset="1"
         style="stop-color:#d82700;stop-opacity:1" />
    </linearGradient>
    <linearGradient
       gradientUnits="userSpaceOnUse"
       y2="452"
       x2="510"
       y1="452"
       x1="399"
       id="linearGradient4322"
       xlink:href="#linearGradient4316"
       gradientTransform="translate(-379,470)" />
    <linearGradient
       inkscape:collect="always"
       xlink:href="#linearGradient4152"
       id="linearGradient3350"
       gradientUnits="userSpaceOnUse"
       gradientTransform="matrix(1.77,0,0,1.77,-537,-556)"
       x1="399"
       y1="452"
       x2="510"
       y2="452" />
  </defs>
  <metadata
     id="metadata7">
    <rdf:RDF>
      <cc:Work
         rdf:about="">
        <dc:format>image/svg+xml</dc:format>
        <dc:type
           rdf:resource="http://purl.org/dc/dcmitype/StillImage" />
        <dc:title></dc:title>
      </cc:Work>
    </rdf:RDF>
  </metadata>
  <path
     id="path3338"
     d="M 149,61 C 149,23 129,31 127,61 126,89 126,106 125,142 101,124 71.5,137 60,142 57.7,89 57.6,62 46.8,62 34.8,64 40,106 40,159 40,195 54.6,230 96,230 137,230 151,212 151,177 151,124 150,124 149,61 Z"
     style="fill:#ffd5d5;fill-rule:evenodd;stroke:none;stroke-width:1px;stroke-linecap:butt;stroke-linejoin:miter;stroke-opacity:1"
     inkscape:connector-curvature="0"
     sodipodi:nodetypes="cccccsssc" />
  <path
     id="path4286"
     d="M 255,307 C 309,324 319,307 319,307 319,307 311,324 289,324 266,324 255,307 255,307 Z"
     style="fill:#ffd5d5;fill-opacity:1;fill-rule:evenodd;stroke:none;stroke-width:1px;stroke-linecap:butt;stroke-linejoin:miter;stroke-opacity:1"
     inkscape:connector-curvature="0" />
  <g
     id="layer1"
     transform="translate(-283,-140)" />
  <path
     inkscape:connector-curvature="0"
     style="fill:url(#linearGradient3350);fill-opacity:1;fill-rule:evenodd;stroke:none;stroke-width:1px;stroke-linecap:butt;stroke-linejoin:miter;stroke-opacity:1"
     d="M 363,194 C 370,270 195,159 191,323 89,113 352,74.8 363,194 Z"
     id="path3348"
     sodipodi:nodetypes="scs" />
</svg>
